<svg width="50" height="50" viewBox="0 0 50 50" fill="none" xmlns="http://www.w3.org/2000/svg">
<path d="M20.443 18.35C21.082 18.35 21.673 18.4 22.213 18.548C22.703 18.638 23.1708 18.8228 23.59 19.092C23.984 19.339 24.279 19.686 24.475 20.131C24.672 20.576 24.77 21.121 24.77 21.714C24.77 22.407 24.623 23 24.279 23.445C23.984 23.891 23.492 24.286 22.902 24.583C23.738 24.831 24.377 25.276 24.77 25.869C25.164 26.463 25.41 27.205 25.41 28.046C25.41 28.739 25.262 29.332 25.016 29.827C24.77 30.322 24.377 30.767 23.934 31.064C23.4528 31.3823 22.9208 31.6164 22.361 31.756C21.771 31.905 21.181 32.004 20.591 32.004H14V18.35H20.443ZM20.049 23.89C20.59 23.89 21.033 23.742 21.377 23.495C21.721 23.248 21.869 22.802 21.869 22.258C21.869 21.961 21.819 21.664 21.721 21.467C21.623 21.269 21.475 21.12 21.279 20.972C21.082 20.873 20.885 20.774 20.639 20.725C20.393 20.675 20.148 20.675 19.852 20.675H17V23.891H20.05L20.049 23.89ZM20.197 29.728C20.492 29.728 20.787 29.678 21.033 29.629C21.2814 29.5817 21.5163 29.4803 21.721 29.332C21.9214 29.1872 22.089 29.0018 22.213 28.788C22.311 28.541 22.41 28.244 22.41 27.898C22.41 27.205 22.213 26.71 21.82 26.364C21.426 26.067 20.885 25.919 20.246 25.919H17V29.729L20.197 29.728ZM29.689 29.678C30.082 30.074 30.672 30.272 31.459 30.272C32 30.272 32.492 30.124 32.885 29.877C33.279 29.58 33.525 29.283 33.623 28.986H36.033C35.639 30.173 35.049 31.014 34.263 31.558C33.475 32.053 32.541 32.35 31.41 32.35C30.6864 32.3522 29.9688 32.2178 29.295 31.954C28.6887 31.7265 28.148 31.3528 27.721 30.866C27.2643 30.4106 26.9267 29.8497 26.738 29.233C26.492 28.59 26.393 27.898 26.393 27.106C26.393 26.364 26.492 25.672 26.738 25.028C26.9745 24.4081 27.3245 23.8377 27.77 23.346C28.213 22.901 28.754 22.506 29.344 22.258C30.0007 21.994 30.7022 21.8596 31.41 21.862C32.246 21.862 32.984 22.011 33.623 22.357C34.263 22.703 34.754 23.099 35.148 23.693C35.5499 24.2635 35.8494 24.8997 36.033 25.573C36.131 26.265 36.18 26.958 36.131 27.749H29C29 28.541 29.295 29.283 29.689 29.679V29.678ZM32.787 24.484C32.443 24.138 31.902 23.94 31.262 23.94C30.8867 23.9343 30.5156 24.0191 30.18 24.187C29.885 24.336 29.689 24.534 29.492 24.732C29.311 24.9232 29.1912 25.1642 29.148 25.424C29.098 25.672 29.049 25.869 29.049 26.067H33.475C33.377 25.325 33.131 24.831 32.787 24.484ZM28.459 19.29H33.967V20.626H28.46V19.29H28.459Z" fill="black"/>
<circle cx="25" cy="25" r="24.5" stroke="#E8E7EA"/>
</svg>
