<svg width="50" height="50" viewBox="0 0 50 50" fill="none" xmlns="http://www.w3.org/2000/svg">
<path d="M25 25C25 25.7956 25.3161 26.5587 25.8787 27.1213C26.4413 27.6839 27.2044 28 28 28C28.7956 28 29.5587 27.6839 30.1213 27.1213C30.6839 26.5587 31 25.7956 31 25C31 24.2044 30.6839 23.4413 30.1213 22.8787C29.5587 22.3161 28.7956 22 28 22C27.2044 22 26.4413 22.3161 25.8787 22.8787C25.3161 23.4413 25 24.2044 25 25Z" stroke="black" stroke-width="2" stroke-linecap="round" stroke-linejoin="round"/>
<path d="M19 19C19 18.2044 19.3161 17.4413 19.8787 16.8787C20.4413 16.3161 21.2044 16 22 16H28C28.7956 16 29.5587 16.3161 30.1213 16.8787C30.6839 17.4413 31 18.2044 31 19C31 19.7956 30.6839 20.5587 30.1213 21.1213C29.5587 21.6839 28.7956 22 28 22H22C21.2044 22 20.4413 21.6839 19.8787 21.1213C19.3161 20.5587 19 19.7956 19 19Z" stroke="black" stroke-width="2" stroke-linecap="round" stroke-linejoin="round"/>
<path d="M22 22C21.2044 22 20.4413 22.3161 19.8787 22.8787C19.3161 23.4413 19 24.2044 19 25C19 25.7956 19.3161 26.5587 19.8787 27.1213C20.4413 27.6839 21.2044 28 22 28M22 28H25M22 28C21.4067 28 20.8266 28.1759 20.3333 28.5056C19.8399 28.8352 19.4554 29.3038 19.2284 29.8519C19.0013 30.4001 18.9419 31.0033 19.0576 31.5853C19.1734 32.1672 19.4591 32.7018 19.8787 33.1213C20.2982 33.5409 20.8328 33.8266 21.4147 33.9424C21.9967 34.0581 22.5999 33.9987 23.1481 33.7716C23.6962 33.5446 24.1648 33.1601 24.4944 32.6667C24.8241 32.1734 25 31.5933 25 31V16" stroke="black" stroke-width="2" stroke-linecap="round" stroke-linejoin="round"/>
<circle cx="25" cy="25" r="24.5" stroke="#E8E7EA"/>
</svg>
