<svg width="50" height="50" viewBox="0 0 50 50" fill="none" xmlns="http://www.w3.org/2000/svg">
<path d="M35.46 19C34.69 19.35 33.86 19.58 33 19.69C33.88 19.16 34.56 18.32 34.88 17.31C34.05 17.81 33.13 18.16 32.16 18.36C31.37 17.5 30.26 17 29 17C26.65 17 24.73 18.92 24.73 21.29C24.73 21.63 24.77 21.96 24.84 22.27C21.28 22.09 18.11 20.38 16 17.79C15.63 18.42 15.42 19.16 15.42 19.94C15.42 21.43 16.17 22.75 17.33 23.5C16.62 23.5 15.96 23.3 15.38 23V23.03C15.38 25.11 16.86 26.85 18.82 27.24C18.1908 27.4122 17.5301 27.4362 16.89 27.31C17.1616 28.1625 17.6936 28.9084 18.4111 29.4429C19.1285 29.9775 19.9955 30.2737 20.89 30.29C19.3737 31.4904 17.494 32.1393 15.56 32.13C15.22 32.13 14.88 32.11 14.54 32.07C16.44 33.29 18.7 34 21.12 34C29 34 33.33 27.46 33.33 21.79C33.33 21.6 33.33 21.42 33.32 21.23C34.16 20.63 34.88 19.87 35.46 19Z" fill="black"/>
<circle cx="25" cy="25" r="24.5" stroke="#E8E7EA"/>
</svg>
