<svg width="50" height="50" viewBox="0 0 50 50" fill="none" xmlns="http://www.w3.org/2000/svg">
<path d="M20.8 15H29.2C32.4 15 35 17.6 35 20.8V29.2C35 30.7383 34.3889 32.2135 33.3012 33.3012C32.2135 34.3889 30.7383 35 29.2 35H20.8C17.6 35 15 32.4 15 29.2V20.8C15 19.2617 15.6111 17.7865 16.6988 16.6988C17.7865 15.6111 19.2617 15 20.8 15ZM20.6 17C19.6452 17 18.7295 17.3793 18.0544 18.0544C17.3793 18.7295 17 19.6452 17 20.6V29.4C17 31.39 18.61 33 20.6 33H29.4C30.3548 33 31.2705 32.6207 31.9456 31.9456C32.6207 31.2705 33 30.3548 33 29.4V20.6C33 18.61 31.39 17 29.4 17H20.6ZM30.25 18.5C30.5815 18.5 30.8995 18.6317 31.1339 18.8661C31.3683 19.1005 31.5 19.4185 31.5 19.75C31.5 20.0815 31.3683 20.3995 31.1339 20.6339C30.8995 20.8683 30.5815 21 30.25 21C29.9185 21 29.6005 20.8683 29.3661 20.6339C29.1317 20.3995 29 20.0815 29 19.75C29 19.4185 29.1317 19.1005 29.3661 18.8661C29.6005 18.6317 29.9185 18.5 30.25 18.5ZM25 20C26.3261 20 27.5979 20.5268 28.5355 21.4645C29.4732 22.4021 30 23.6739 30 25C30 26.3261 29.4732 27.5979 28.5355 28.5355C27.5979 29.4732 26.3261 30 25 30C23.6739 30 22.4021 29.4732 21.4645 28.5355C20.5268 27.5979 20 26.3261 20 25C20 23.6739 20.5268 22.4021 21.4645 21.4645C22.4021 20.5268 23.6739 20 25 20ZM25 22C24.2044 22 23.4413 22.3161 22.8787 22.8787C22.3161 23.4413 22 24.2044 22 25C22 25.7956 22.3161 26.5587 22.8787 27.1213C23.4413 27.6839 24.2044 28 25 28C25.7956 28 26.5587 27.6839 27.1213 27.1213C27.6839 26.5587 28 25.7956 28 25C28 24.2044 27.6839 23.4413 27.1213 22.8787C26.5587 22.3161 25.7956 22 25 22Z" fill="black"/>
<circle cx="25" cy="25" r="24.5" stroke="#E8E7EA"/>
</svg>
