<svg width="50" height="50" viewBox="0 0 50 50" fill="none" xmlns="http://www.w3.org/2000/svg">
<path d="M19.9399 18C19.9397 18.5305 19.7287 19.0391 19.3534 19.4139C18.9782 19.7888 18.4694 19.9993 17.9389 19.999C17.4085 19.9988 16.8999 19.7878 16.525 19.4125C16.1501 19.0373 15.9397 18.5285 15.9399 17.998C15.9402 17.4676 16.1512 16.959 16.5264 16.5841C16.9017 16.2092 17.4105 15.9988 17.9409 15.999C18.4714 15.9993 18.98 16.2103 19.3549 16.5855C19.7297 16.9608 19.9402 17.4696 19.9399 18ZM19.9999 21.48H15.9999V34H19.9999V21.48ZM26.3199 21.48H22.3399V34H26.2799V27.43C26.2799 23.77 31.0499 23.43 31.0499 27.43V34H34.9999V26.07C34.9999 19.9 27.9399 20.13 26.2799 23.16L26.3199 21.48Z" fill="black"/>
<circle cx="25" cy="25" r="24.5" stroke="#E8E7EA"/>
</svg>
