<svg width="160" height="30" viewBox="0 0 160 30" fill="none" xmlns="http://www.w3.org/2000/svg">
<path d="M5.65693 26H0.713745L8.24571 4.18182H14.1903L21.7116 26H16.7684L11.3032 9.16762H11.1328L5.65693 26ZM5.34798 17.424H17.0241V21.0249H5.34798V17.424Z" fill="black"/>
<path d="M24.3377 26V4.18182H28.9506V13.8019H29.2382L37.0898 4.18182H42.6189L34.5223 13.951L42.7148 26H37.1963L31.2198 17.0298L28.9506 19.7997V26H24.3377Z" fill="black"/>
<path d="M66.571 3.27273H67.892V9.01278C67.892 9.62358 67.7486 10.1648 67.4616 10.6364C67.1747 11.1051 66.7713 11.4744 66.2514 11.7443C65.7315 12.0114 65.1222 12.1449 64.4233 12.1449C63.7273 12.1449 63.1193 12.0114 62.5994 11.7443C62.0795 11.4744 61.6761 11.1051 61.3892 10.6364C61.1023 10.1648 60.9588 9.62358 60.9588 9.01278V3.27273H62.2756V8.90625C62.2756 9.30114 62.3622 9.65199 62.5355 9.95881C62.7116 10.2656 62.9602 10.5071 63.2812 10.6832C63.6023 10.8565 63.983 10.9432 64.4233 10.9432C64.8665 10.9432 65.2486 10.8565 65.5696 10.6832C65.8935 10.5071 66.1406 10.2656 66.3111 9.95881C66.4844 9.65199 66.571 9.30114 66.571 8.90625V3.27273ZM71.1232 3.27273V12H69.8065V3.27273H71.1232ZM76.2624 2.86364L73.4499 13.3125H72.3121L75.1246 2.86364H76.2624ZM83.0593 3.27273H84.3803V9.01278C84.3803 9.62358 84.2369 10.1648 83.9499 10.6364C83.663 11.1051 83.2596 11.4744 82.7397 11.7443C82.2198 12.0114 81.6104 12.1449 80.9116 12.1449C80.2156 12.1449 79.6076 12.0114 79.0877 11.7443C78.5678 11.4744 78.1644 11.1051 77.8775 10.6364C77.5906 10.1648 77.4471 9.62358 77.4471 9.01278V3.27273H78.7638V8.90625C78.7638 9.30114 78.8505 9.65199 79.0238 9.95881C79.1999 10.2656 79.4485 10.5071 79.7695 10.6832C80.0906 10.8565 80.4712 10.9432 80.9116 10.9432C81.3548 10.9432 81.7369 10.8565 82.0579 10.6832C82.3817 10.5071 82.6289 10.2656 82.7994 9.95881C82.9727 9.65199 83.0593 9.30114 83.0593 8.90625V3.27273ZM87.2109 3.27273L89.299 6.68608H89.3672L91.4553 3.27273H92.9808L90.2621 7.63636L92.9979 12H91.4638L89.3672 8.63352H89.299L87.2024 12H85.6683L88.451 7.63636L85.6854 3.27273H87.2109ZM100.288 12H97.4627V3.27273H100.377C101.233 3.27273 101.967 3.44744 102.581 3.79688C103.194 4.14347 103.664 4.64205 103.991 5.29261C104.321 5.94034 104.485 6.71733 104.485 7.62358C104.485 8.53267 104.319 9.31392 103.987 9.96733C103.657 10.6207 103.18 11.1236 102.555 11.4759C101.93 11.8253 101.174 12 100.288 12ZM98.7795 10.8494H100.216C100.88 10.8494 101.433 10.7244 101.873 10.4744C102.314 10.2216 102.643 9.85653 102.862 9.37926C103.081 8.89915 103.19 8.31392 103.19 7.62358C103.19 6.93892 103.081 6.35795 102.862 5.88068C102.646 5.40341 102.324 5.04119 101.895 4.79403C101.466 4.54687 100.933 4.4233 100.297 4.4233H98.7795V10.8494ZM108.842 12.1321C108.197 12.1321 107.641 11.9943 107.175 11.7188C106.712 11.4403 106.354 11.0497 106.102 10.5469C105.852 10.0412 105.727 9.44886 105.727 8.76989C105.727 8.09943 105.852 7.50852 106.102 6.99716C106.354 6.4858 106.707 6.08665 107.158 5.79972C107.613 5.51278 108.144 5.36932 108.752 5.36932C109.121 5.36932 109.479 5.4304 109.826 5.55256C110.173 5.67472 110.484 5.86648 110.759 6.12784C111.035 6.3892 111.252 6.72869 111.411 7.14631C111.57 7.56108 111.65 8.06534 111.65 8.65909V9.1108H106.447V8.15625H110.401C110.401 7.82102 110.333 7.52415 110.197 7.26562C110.06 7.00426 109.869 6.7983 109.621 6.64773C109.377 6.49716 109.09 6.42188 108.761 6.42188C108.403 6.42188 108.09 6.50994 107.823 6.68608C107.559 6.85937 107.354 7.08665 107.21 7.3679C107.067 7.64631 106.996 7.94886 106.996 8.27557V9.02131C106.996 9.45881 107.073 9.83097 107.227 10.1378C107.383 10.4446 107.6 10.679 107.879 10.8409C108.157 11 108.482 11.0795 108.854 11.0795C109.096 11.0795 109.316 11.0455 109.515 10.9773C109.714 10.9062 109.886 10.8011 110.031 10.6619C110.175 10.5227 110.286 10.3509 110.363 10.1463L111.569 10.3636C111.472 10.7187 111.299 11.0298 111.049 11.2969C110.802 11.5611 110.491 11.767 110.116 11.9148C109.744 12.0597 109.319 12.1321 108.842 12.1321ZM117.968 7.05256L116.814 7.2571C116.765 7.10937 116.689 6.96875 116.583 6.83523C116.481 6.7017 116.342 6.59233 116.166 6.5071C115.99 6.42187 115.77 6.37926 115.505 6.37926C115.145 6.37926 114.843 6.46023 114.602 6.62216C114.36 6.78125 114.24 6.98722 114.24 7.24006C114.24 7.45881 114.321 7.63494 114.483 7.76847C114.645 7.90199 114.906 8.01136 115.267 8.09659L116.306 8.33523C116.909 8.47443 117.358 8.68892 117.653 8.97869C117.949 9.26847 118.096 9.64489 118.096 10.108C118.096 10.5 117.983 10.8494 117.755 11.1562C117.531 11.4602 117.217 11.6989 116.814 11.8722C116.413 12.0455 115.949 12.1321 115.42 12.1321C114.687 12.1321 114.089 11.9759 113.626 11.6634C113.163 11.348 112.879 10.9006 112.774 10.321L114.005 10.1335C114.082 10.4545 114.24 10.6974 114.478 10.8622C114.717 11.0241 115.028 11.1051 115.412 11.1051C115.829 11.1051 116.163 11.0185 116.413 10.8452C116.663 10.669 116.788 10.4545 116.788 10.2017C116.788 9.99716 116.711 9.82528 116.558 9.68608C116.407 9.54687 116.176 9.44176 115.863 9.37074L114.755 9.12784C114.145 8.98864 113.693 8.76705 113.4 8.46307C113.11 8.15909 112.966 7.77415 112.966 7.30824C112.966 6.92187 113.074 6.58381 113.289 6.29403C113.505 6.00426 113.804 5.77841 114.184 5.61648C114.565 5.4517 115.001 5.36932 115.493 5.36932C116.2 5.36932 116.757 5.52273 117.163 5.82955C117.569 6.13352 117.838 6.54119 117.968 7.05256ZM119.497 12V5.45455H120.771V12H119.497ZM120.141 4.4446C119.919 4.4446 119.729 4.37074 119.57 4.22301C119.413 4.07244 119.335 3.89347 119.335 3.68608C119.335 3.47585 119.413 3.29687 119.57 3.14915C119.729 2.99858 119.919 2.9233 120.141 2.9233C120.362 2.9233 120.551 2.99858 120.707 3.14915C120.866 3.29687 120.946 3.47585 120.946 3.68608C120.946 3.89347 120.866 4.07244 120.707 4.22301C120.551 4.37074 120.362 4.4446 120.141 4.4446ZM125.23 14.5909C124.71 14.5909 124.262 14.5227 123.887 14.3864C123.515 14.25 123.211 14.0696 122.975 13.8452C122.74 13.6207 122.564 13.375 122.447 13.108L123.542 12.6562C123.619 12.7812 123.721 12.9134 123.849 13.0526C123.98 13.1946 124.156 13.3153 124.377 13.4148C124.602 13.5142 124.89 13.5639 125.243 13.5639C125.725 13.5639 126.125 13.446 126.44 13.2102C126.755 12.9773 126.913 12.6051 126.913 12.0938V10.8068H126.832C126.755 10.946 126.645 11.1009 126.5 11.2713C126.358 11.4418 126.162 11.5895 125.912 11.7145C125.662 11.8395 125.336 11.902 124.936 11.902C124.419 11.902 123.953 11.7812 123.538 11.5398C123.126 11.2955 122.799 10.9361 122.558 10.4616C122.319 9.98437 122.2 9.39773 122.2 8.7017C122.2 8.00568 122.318 7.40909 122.554 6.91193C122.792 6.41477 123.119 6.03409 123.534 5.76989C123.949 5.50284 124.419 5.36932 124.944 5.36932C125.35 5.36932 125.679 5.4375 125.929 5.57386C126.179 5.70739 126.373 5.86364 126.512 6.04261C126.654 6.22159 126.764 6.37926 126.841 6.51562H126.934V5.45455H128.183V12.1449C128.183 12.7074 128.052 13.169 127.791 13.5298C127.529 13.8906 127.176 14.1577 126.73 14.331C126.287 14.5043 125.787 14.5909 125.23 14.5909ZM125.217 10.8452C125.583 10.8452 125.893 10.7599 126.146 10.5895C126.402 10.4162 126.595 10.169 126.725 9.84801C126.859 9.52415 126.926 9.13636 126.926 8.68466C126.926 8.24432 126.86 7.85653 126.73 7.52131C126.599 7.18608 126.407 6.92472 126.154 6.73722C125.902 6.54687 125.589 6.4517 125.217 6.4517C124.833 6.4517 124.514 6.55114 124.258 6.75C124.002 6.94602 123.809 7.21307 123.679 7.55114C123.551 7.8892 123.487 8.26705 123.487 8.68466C123.487 9.11364 123.552 9.49006 123.683 9.81392C123.814 10.1378 124.007 10.3906 124.262 10.5724C124.521 10.7543 124.839 10.8452 125.217 10.8452ZM131.166 8.11364V12H129.892V5.45455H131.115V6.51989H131.196C131.346 6.1733 131.582 5.89489 131.903 5.68466C132.227 5.47443 132.635 5.36932 133.126 5.36932C133.572 5.36932 133.963 5.46307 134.298 5.65057C134.633 5.83523 134.893 6.1108 135.078 6.47727C135.262 6.84375 135.355 7.29687 135.355 7.83665V12H134.081V7.99006C134.081 7.51562 133.957 7.14489 133.71 6.87784C133.463 6.60795 133.123 6.47301 132.691 6.47301C132.396 6.47301 132.133 6.53693 131.903 6.66477C131.676 6.79261 131.495 6.98011 131.362 7.22727C131.231 7.47159 131.166 7.76705 131.166 8.11364ZM139.885 12.1321C139.24 12.1321 138.684 11.9943 138.218 11.7188C137.755 11.4403 137.397 11.0497 137.145 10.5469C136.895 10.0412 136.77 9.44886 136.77 8.76989C136.77 8.09943 136.895 7.50852 137.145 6.99716C137.397 6.4858 137.75 6.08665 138.201 5.79972C138.656 5.51278 139.187 5.36932 139.795 5.36932C140.164 5.36932 140.522 5.4304 140.869 5.55256C141.216 5.67472 141.527 5.86648 141.802 6.12784C142.078 6.3892 142.295 6.72869 142.454 7.14631C142.613 7.56108 142.693 8.06534 142.693 8.65909V9.1108H137.49V8.15625H141.444C141.444 7.82102 141.376 7.52415 141.24 7.26562C141.103 7.00426 140.912 6.7983 140.664 6.64773C140.42 6.49716 140.133 6.42188 139.804 6.42188C139.446 6.42188 139.133 6.50994 138.866 6.68608C138.602 6.85937 138.397 7.08665 138.252 7.3679C138.11 7.64631 138.039 7.94886 138.039 8.27557V9.02131C138.039 9.45881 138.116 9.83097 138.27 10.1378C138.426 10.4446 138.643 10.679 138.922 10.8409C139.2 11 139.525 11.0795 139.897 11.0795C140.139 11.0795 140.359 11.0455 140.558 10.9773C140.757 10.9062 140.929 10.8011 141.074 10.6619C141.218 10.5227 141.329 10.3509 141.406 10.1463L142.612 10.3636C142.515 10.7187 142.342 11.0298 142.092 11.2969C141.845 11.5611 141.534 11.767 141.159 11.9148C140.787 12.0597 140.362 12.1321 139.885 12.1321ZM144.107 12V5.45455H145.338V6.49432H145.406C145.526 6.14205 145.736 5.86506 146.037 5.66335C146.341 5.45881 146.685 5.35653 147.068 5.35653C147.148 5.35653 147.241 5.35937 147.349 5.36506C147.46 5.37074 147.547 5.37784 147.609 5.38636V6.60511C147.558 6.59091 147.467 6.57528 147.337 6.55824C147.206 6.53835 147.075 6.52841 146.945 6.52841C146.643 6.52841 146.375 6.59233 146.139 6.72017C145.906 6.84517 145.722 7.01989 145.585 7.24432C145.449 7.46591 145.381 7.71875 145.381 8.00284V12H144.107ZM154.428 12.1236C153.842 12.1236 153.338 12.017 152.915 11.804C152.494 11.5909 152.17 11.3011 151.943 10.9347C151.716 10.5653 151.602 10.1477 151.602 9.68182C151.602 9.3267 151.676 9.01136 151.824 8.7358C151.972 8.45739 152.178 8.20028 152.442 7.96449C152.706 7.72869 153.011 7.49148 153.358 7.25284L154.764 6.25994C155.003 6.10369 155.189 5.93892 155.322 5.76562C155.456 5.58949 155.523 5.37216 155.523 5.11364C155.523 4.90909 155.435 4.71307 155.259 4.52557C155.082 4.33807 154.847 4.24432 154.551 4.24432C154.347 4.24432 154.166 4.29403 154.01 4.39347C153.857 4.4929 153.736 4.62074 153.648 4.77699C153.563 4.9304 153.52 5.09233 153.52 5.26278C153.52 5.46165 153.574 5.66193 153.682 5.86364C153.793 6.06534 153.935 6.27415 154.108 6.49006C154.281 6.70312 154.463 6.92472 154.653 7.15483L158.706 12H157.266L153.912 8.05824C153.631 7.72585 153.369 7.41335 153.128 7.12074C152.886 6.82528 152.69 6.52699 152.54 6.22585C152.392 5.92188 152.318 5.59375 152.318 5.24148C152.318 4.84091 152.409 4.4858 152.591 4.17614C152.776 3.86364 153.033 3.61932 153.362 3.44318C153.692 3.26705 154.078 3.17898 154.521 3.17898C154.97 3.17898 155.355 3.26705 155.676 3.44318C156 3.61648 156.249 3.84801 156.422 4.13778C156.598 4.42472 156.686 4.73864 156.686 5.07955C156.686 5.49432 156.582 5.8608 156.375 6.17898C156.17 6.49432 155.888 6.78409 155.527 7.0483L153.776 8.33949C153.435 8.58949 153.197 8.83665 153.064 9.08097C152.933 9.32244 152.868 9.51136 152.868 9.64773C152.868 9.89773 152.932 10.1293 153.06 10.3423C153.19 10.5554 153.372 10.7259 153.605 10.8537C153.841 10.9815 154.116 11.0455 154.432 11.0455C154.756 11.0455 155.071 10.9759 155.378 10.8366C155.688 10.6946 155.967 10.4915 156.217 10.2273C156.47 9.96307 156.67 9.64631 156.818 9.27699C156.966 8.90767 157.04 8.49432 157.04 8.03693H158.19C158.19 8.59943 158.126 9.07528 157.999 9.46449C157.871 9.85085 157.716 10.1662 157.534 10.4105C157.355 10.652 157.186 10.8409 157.027 10.9773C156.976 11.0227 156.928 11.0682 156.882 11.1136C156.837 11.1591 156.788 11.2045 156.737 11.25C156.442 11.5483 156.084 11.7685 155.663 11.9105C155.246 12.0526 154.834 12.1236 154.428 12.1236ZM60.9588 27V18.2727H64.0696C64.7486 18.2727 65.3111 18.3963 65.7571 18.6435C66.2031 18.8906 66.5369 19.2287 66.7585 19.6577C66.9801 20.0838 67.0909 20.5639 67.0909 21.098C67.0909 21.6349 66.9787 22.1179 66.7543 22.5469C66.5327 22.973 66.1974 23.3111 65.7486 23.5611C65.3026 23.8082 64.7415 23.9318 64.0653 23.9318H61.9261V22.8153H63.946C64.375 22.8153 64.723 22.7415 64.9901 22.5938C65.2571 22.4432 65.4531 22.2386 65.5781 21.9801C65.7031 21.7216 65.7656 21.4276 65.7656 21.098C65.7656 20.7685 65.7031 20.4759 65.5781 20.2202C65.4531 19.9645 65.2557 19.7642 64.9858 19.6193C64.7188 19.4744 64.3665 19.402 63.929 19.402H62.2756V27H60.9588ZM68.5323 27V20.4545H69.7638V21.4943H69.832C69.9513 21.142 70.1616 20.8651 70.4627 20.6634C70.7667 20.4588 71.1104 20.3565 71.494 20.3565C71.5735 20.3565 71.6673 20.3594 71.7752 20.3651C71.886 20.3707 71.9727 20.3778 72.0352 20.3864V21.6051C71.984 21.5909 71.8931 21.5753 71.7624 21.5582C71.6317 21.5384 71.5011 21.5284 71.3704 21.5284C71.0692 21.5284 70.8008 21.5923 70.565 21.7202C70.332 21.8452 70.1474 22.0199 70.011 22.2443C69.8746 22.4659 69.8065 22.7187 69.8065 23.0028V27H68.5323ZM75.6605 27.1321C75.0469 27.1321 74.5114 26.9915 74.054 26.7102C73.5966 26.429 73.2415 26.0355 72.9886 25.5298C72.7358 25.0241 72.6094 24.4332 72.6094 23.7571C72.6094 23.0781 72.7358 22.4844 72.9886 21.9759C73.2415 21.4673 73.5966 21.0724 74.054 20.7912C74.5114 20.5099 75.0469 20.3693 75.6605 20.3693C76.2741 20.3693 76.8097 20.5099 77.267 20.7912C77.7244 21.0724 78.0795 21.4673 78.3324 21.9759C78.5852 22.4844 78.7116 23.0781 78.7116 23.7571C78.7116 24.4332 78.5852 25.0241 78.3324 25.5298C78.0795 26.0355 77.7244 26.429 77.267 26.7102C76.8097 26.9915 76.2741 27.1321 75.6605 27.1321ZM75.6648 26.0625C76.0625 26.0625 76.392 25.9574 76.6534 25.7472C76.9148 25.5369 77.108 25.2571 77.233 24.9077C77.3608 24.5582 77.4247 24.1733 77.4247 23.7528C77.4247 23.3352 77.3608 22.9517 77.233 22.6023C77.108 22.25 76.9148 21.9673 76.6534 21.7543C76.392 21.5412 76.0625 21.4347 75.6648 21.4347C75.2642 21.4347 74.9318 21.5412 74.6676 21.7543C74.4063 21.9673 74.2116 22.25 74.0838 22.6023C73.9588 22.9517 73.8963 23.3352 73.8963 23.7528C73.8963 24.1733 73.9588 24.5582 74.0838 24.9077C74.2116 25.2571 74.4063 25.5369 74.6676 25.7472C74.9318 25.9574 75.2642 26.0625 75.6648 26.0625ZM82.5842 27.1278C82.0558 27.1278 81.5842 26.9929 81.1694 26.723C80.7575 26.4503 80.4336 26.0625 80.1978 25.5597C79.9648 25.054 79.8484 24.4474 79.8484 23.7401C79.8484 23.0327 79.9663 22.4276 80.2021 21.9247C80.4407 21.4219 80.7674 21.0369 81.1822 20.7699C81.5969 20.5028 82.0671 20.3693 82.5927 20.3693C82.9989 20.3693 83.3256 20.4375 83.5728 20.5739C83.8228 20.7074 84.016 20.8636 84.1523 21.0426C84.2915 21.2216 84.3995 21.3793 84.4762 21.5156H84.5529V18.2727H85.8271V27H84.5827V25.9815H84.4762C84.3995 26.1207 84.2887 26.2798 84.1438 26.4588C84.0018 26.6378 83.8058 26.794 83.5558 26.9276C83.3058 27.0611 82.9819 27.1278 82.5842 27.1278ZM82.8654 26.0412C83.2319 26.0412 83.5415 25.9446 83.7944 25.7514C84.0501 25.5554 84.2433 25.2841 84.3739 24.9375C84.5075 24.5909 84.5742 24.1875 84.5742 23.7273C84.5742 23.2727 84.5089 22.875 84.3782 22.5341C84.2475 22.1932 84.0558 21.9276 83.8029 21.7372C83.5501 21.5469 83.2376 21.4517 82.8654 21.4517C82.4819 21.4517 82.1623 21.5511 81.9066 21.75C81.6509 21.9489 81.4577 22.2202 81.3271 22.5639C81.1992 22.9077 81.1353 23.2955 81.1353 23.7273C81.1353 24.1648 81.2006 24.5582 81.3313 24.9077C81.462 25.2571 81.6552 25.5341 81.9109 25.7386C82.1694 25.9403 82.4876 26.0412 82.8654 26.0412ZM91.7919 24.2855V20.4545H93.0703V27H91.8175V25.8665H91.7493C91.5987 26.2159 91.3572 26.5071 91.0249 26.7401C90.6953 26.9702 90.2848 27.0852 89.7933 27.0852C89.3729 27.0852 89.0007 26.9929 88.6768 26.8082C88.3558 26.6207 88.103 26.3438 87.9183 25.9773C87.7365 25.6108 87.6456 25.1577 87.6456 24.6179V20.4545H88.9197V24.4645C88.9197 24.9105 89.0433 25.2656 89.2905 25.5298C89.5376 25.794 89.8587 25.9261 90.2536 25.9261C90.4922 25.9261 90.7294 25.8665 90.9652 25.7472C91.2038 25.6278 91.4013 25.4474 91.5575 25.206C91.7166 24.9645 91.7947 24.6577 91.7919 24.2855ZM97.5394 27.1321C96.9059 27.1321 96.3604 26.9886 95.9031 26.7017C95.4485 26.4119 95.0991 26.0128 94.8548 25.5043C94.6104 24.9957 94.4883 24.4134 94.4883 23.7571C94.4883 23.0923 94.6133 22.5057 94.8633 21.9972C95.1133 21.4858 95.4656 21.0866 95.9201 20.7997C96.3746 20.5128 96.9102 20.3693 97.5266 20.3693C98.0238 20.3693 98.467 20.4616 98.8562 20.6463C99.2454 20.8281 99.5593 21.0838 99.7979 21.4134C100.039 21.7429 100.183 22.1278 100.228 22.5682H98.9883C98.9201 22.2614 98.7638 21.9972 98.5195 21.7756C98.2781 21.554 97.9542 21.4432 97.5479 21.4432C97.1928 21.4432 96.8817 21.5369 96.6147 21.7244C96.3505 21.9091 96.1445 22.1733 95.9968 22.517C95.8491 22.858 95.7752 23.2614 95.7752 23.7273C95.7752 24.2045 95.8477 24.6165 95.9925 24.9631C96.1374 25.3097 96.342 25.5781 96.6062 25.7685C96.8732 25.9588 97.1871 26.054 97.5479 26.054C97.7894 26.054 98.0082 26.0099 98.2042 25.9219C98.4031 25.831 98.5692 25.7017 98.7028 25.5341C98.8391 25.3665 98.9343 25.1648 98.9883 24.929H100.228C100.183 25.3523 100.045 25.7301 99.815 26.0625C99.5849 26.3949 99.2766 26.6562 98.8903 26.8466C98.5067 27.0369 98.0565 27.1321 97.5394 27.1321ZM104.646 20.4545V21.4773H101.071V20.4545H104.646ZM102.03 18.8864H103.304V25.0781C103.304 25.3253 103.341 25.5114 103.415 25.6364C103.489 25.7585 103.584 25.8423 103.7 25.8878C103.82 25.9304 103.949 25.9517 104.088 25.9517C104.19 25.9517 104.28 25.9446 104.357 25.9304C104.433 25.9162 104.493 25.9048 104.536 25.8963L104.766 26.9489C104.692 26.9773 104.587 27.0057 104.45 27.0341C104.314 27.0653 104.143 27.0824 103.939 27.0852C103.604 27.0909 103.291 27.0312 103.001 26.9062C102.712 26.7812 102.477 26.5881 102.298 26.3267C102.119 26.0653 102.03 25.7372 102.03 25.3423V18.8864ZM112.159 27H109.334V18.2727H112.249C113.104 18.2727 113.838 18.4474 114.452 18.7969C115.065 19.1435 115.536 19.642 115.862 20.2926C116.192 20.9403 116.357 21.7173 116.357 22.6236C116.357 23.5327 116.19 24.3139 115.858 24.9673C115.528 25.6207 115.051 26.1236 114.426 26.4759C113.801 26.8253 113.045 27 112.159 27ZM110.651 25.8494H112.087C112.751 25.8494 113.304 25.7244 113.744 25.4744C114.185 25.2216 114.514 24.8565 114.733 24.3793C114.952 23.8991 115.061 23.3139 115.061 22.6236C115.061 21.9389 114.952 21.358 114.733 20.8807C114.517 20.4034 114.195 20.0412 113.766 19.794C113.337 19.5469 112.804 19.4233 112.168 19.4233H110.651V25.8494ZM120.713 27.1321C120.068 27.1321 119.512 26.9943 119.047 26.7188C118.583 26.4403 118.225 26.0497 117.973 25.5469C117.723 25.0412 117.598 24.4489 117.598 23.7699C117.598 23.0994 117.723 22.5085 117.973 21.9972C118.225 21.4858 118.578 21.0866 119.029 20.7997C119.484 20.5128 120.015 20.3693 120.623 20.3693C120.993 20.3693 121.35 20.4304 121.697 20.5526C122.044 20.6747 122.355 20.8665 122.63 21.1278C122.906 21.3892 123.123 21.7287 123.282 22.1463C123.441 22.5611 123.521 23.0653 123.521 23.6591V24.1108H118.318V23.1562H122.272C122.272 22.821 122.204 22.5241 122.068 22.2656C121.931 22.0043 121.74 21.7983 121.493 21.6477C121.248 21.4972 120.961 21.4219 120.632 21.4219C120.274 21.4219 119.961 21.5099 119.694 21.6861C119.43 21.8594 119.225 22.0866 119.081 22.3679C118.939 22.6463 118.868 22.9489 118.868 23.2756V24.0213C118.868 24.4588 118.944 24.831 119.098 25.1378C119.254 25.4446 119.471 25.679 119.75 25.8409C120.028 26 120.353 26.0795 120.725 26.0795C120.967 26.0795 121.187 26.0455 121.386 25.9773C121.585 25.9062 121.757 25.8011 121.902 25.6619C122.047 25.5227 122.157 25.3509 122.234 25.1463L123.44 25.3636C123.343 25.7187 123.17 26.0298 122.92 26.2969C122.673 26.5611 122.362 26.767 121.987 26.9148C121.615 27.0597 121.19 27.1321 120.713 27.1321ZM129.839 22.0526L128.685 22.2571C128.636 22.1094 128.56 21.9687 128.455 21.8352C128.352 21.7017 128.213 21.5923 128.037 21.5071C127.861 21.4219 127.641 21.3793 127.376 21.3793C127.016 21.3793 126.714 21.4602 126.473 21.6222C126.232 21.7812 126.111 21.9872 126.111 22.2401C126.111 22.4588 126.192 22.6349 126.354 22.7685C126.516 22.902 126.777 23.0114 127.138 23.0966L128.178 23.3352C128.78 23.4744 129.229 23.6889 129.524 23.9787C129.82 24.2685 129.967 24.6449 129.967 25.108C129.967 25.5 129.854 25.8494 129.626 26.1562C129.402 26.4602 129.088 26.6989 128.685 26.8722C128.284 27.0455 127.82 27.1321 127.291 27.1321C126.558 27.1321 125.96 26.9759 125.497 26.6634C125.034 26.348 124.75 25.9006 124.645 25.321L125.876 25.1335C125.953 25.4545 126.111 25.6974 126.349 25.8622C126.588 26.0241 126.899 26.1051 127.283 26.1051C127.7 26.1051 128.034 26.0185 128.284 25.8452C128.534 25.669 128.659 25.4545 128.659 25.2017C128.659 24.9972 128.582 24.8253 128.429 24.6861C128.278 24.5469 128.047 24.4418 127.734 24.3707L126.626 24.1278C126.016 23.9886 125.564 23.767 125.271 23.4631C124.982 23.1591 124.837 22.7741 124.837 22.3082C124.837 21.9219 124.945 21.5838 125.161 21.294C125.376 21.0043 125.675 20.7784 126.055 20.6165C126.436 20.4517 126.872 20.3693 127.364 20.3693C128.071 20.3693 128.628 20.5227 129.034 20.8295C129.44 21.1335 129.709 21.5412 129.839 22.0526ZM131.368 27V20.4545H132.642V27H131.368ZM132.012 19.4446C131.79 19.4446 131.6 19.3707 131.441 19.223C131.284 19.0724 131.206 18.8935 131.206 18.6861C131.206 18.4759 131.284 18.2969 131.441 18.1491C131.6 17.9986 131.79 17.9233 132.012 17.9233C132.233 17.9233 132.422 17.9986 132.578 18.1491C132.738 18.2969 132.817 18.4759 132.817 18.6861C132.817 18.8935 132.738 19.0724 132.578 19.223C132.422 19.3707 132.233 19.4446 132.012 19.4446ZM137.101 29.5909C136.581 29.5909 136.134 29.5227 135.759 29.3864C135.386 29.25 135.082 29.0696 134.847 28.8452C134.611 28.6207 134.435 28.375 134.318 28.108L135.413 27.6562C135.49 27.7812 135.592 27.9134 135.72 28.0526C135.851 28.1946 136.027 28.3153 136.249 28.4148C136.473 28.5142 136.761 28.5639 137.114 28.5639C137.597 28.5639 137.996 28.446 138.311 28.2102C138.626 27.9773 138.784 27.6051 138.784 27.0938V25.8068H138.703C138.626 25.946 138.516 26.1009 138.371 26.2713C138.229 26.4418 138.033 26.5895 137.783 26.7145C137.533 26.8395 137.207 26.902 136.807 26.902C136.29 26.902 135.824 26.7812 135.409 26.5398C134.997 26.2955 134.67 25.9361 134.429 25.4616C134.19 24.9844 134.071 24.3977 134.071 23.7017C134.071 23.0057 134.189 22.4091 134.425 21.9119C134.663 21.4148 134.99 21.0341 135.405 20.7699C135.82 20.5028 136.29 20.3693 136.815 20.3693C137.222 20.3693 137.55 20.4375 137.8 20.5739C138.05 20.7074 138.244 20.8636 138.384 21.0426C138.526 21.2216 138.635 21.3793 138.712 21.5156H138.805V20.4545H140.054V27.1449C140.054 27.7074 139.923 28.169 139.662 28.5298C139.401 28.8906 139.047 29.1577 138.601 29.331C138.158 29.5043 137.658 29.5909 137.101 29.5909ZM137.088 25.8452C137.455 25.8452 137.764 25.7599 138.017 25.5895C138.273 25.4162 138.466 25.169 138.597 24.848C138.73 24.5241 138.797 24.1364 138.797 23.6847C138.797 23.2443 138.732 22.8565 138.601 22.5213C138.47 22.1861 138.278 21.9247 138.026 21.7372C137.773 21.5469 137.46 21.4517 137.088 21.4517C136.705 21.4517 136.385 21.5511 136.129 21.75C135.874 21.946 135.68 22.2131 135.55 22.5511C135.422 22.8892 135.358 23.267 135.358 23.6847C135.358 24.1136 135.423 24.4901 135.554 24.8139C135.685 25.1378 135.878 25.3906 136.134 25.5724C136.392 25.7543 136.71 25.8452 137.088 25.8452ZM143.037 23.1136V27H141.763V20.4545H142.986V21.5199H143.067C143.217 21.1733 143.453 20.8949 143.774 20.6847C144.098 20.4744 144.506 20.3693 144.997 20.3693C145.443 20.3693 145.834 20.4631 146.169 20.6506C146.504 20.8352 146.764 21.1108 146.949 21.4773C147.134 21.8437 147.226 22.2969 147.226 22.8366V27H145.952V22.9901C145.952 22.5156 145.828 22.1449 145.581 21.8778C145.334 21.608 144.994 21.473 144.562 21.473C144.267 21.473 144.004 21.5369 143.774 21.6648C143.547 21.7926 143.366 21.9801 143.233 22.2273C143.102 22.4716 143.037 22.767 143.037 23.1136ZM151.756 27.1321C151.111 27.1321 150.555 26.9943 150.089 26.7188C149.626 26.4403 149.268 26.0497 149.016 25.5469C148.766 25.0412 148.641 24.4489 148.641 23.7699C148.641 23.0994 148.766 22.5085 149.016 21.9972C149.268 21.4858 149.621 21.0866 150.072 20.7997C150.527 20.5128 151.058 20.3693 151.666 20.3693C152.036 20.3693 152.393 20.4304 152.74 20.5526C153.087 20.6747 153.398 20.8665 153.673 21.1278C153.949 21.3892 154.166 21.7287 154.325 22.1463C154.484 22.5611 154.564 23.0653 154.564 23.6591V24.1108H149.361V23.1562H153.315C153.315 22.821 153.247 22.5241 153.111 22.2656C152.974 22.0043 152.783 21.7983 152.536 21.6477C152.291 21.4972 152.004 21.4219 151.675 21.4219C151.317 21.4219 151.004 21.5099 150.737 21.6861C150.473 21.8594 150.268 22.0866 150.124 22.3679C149.982 22.6463 149.911 22.9489 149.911 23.2756V24.0213C149.911 24.4588 149.987 24.831 150.141 25.1378C150.297 25.4446 150.514 25.679 150.793 25.8409C151.071 26 151.396 26.0795 151.768 26.0795C152.01 26.0795 152.23 26.0455 152.429 25.9773C152.628 25.9062 152.8 25.8011 152.945 25.6619C153.089 25.5227 153.2 25.3509 153.277 25.1463L154.483 25.3636C154.386 25.7187 154.213 26.0298 153.963 26.2969C153.716 26.5611 153.405 26.767 153.03 26.9148C152.658 27.0597 152.233 27.1321 151.756 27.1321ZM155.978 27V20.4545H157.209V21.4943H157.277C157.397 21.142 157.607 20.8651 157.908 20.6634C158.212 20.4588 158.556 20.3565 158.939 20.3565C159.019 20.3565 159.113 20.3594 159.221 20.3651C159.331 20.3707 159.418 20.3778 159.48 20.3864V21.6051C159.429 21.5909 159.338 21.5753 159.208 21.5582C159.077 21.5384 158.946 21.5284 158.816 21.5284C158.515 21.5284 158.246 21.5923 158.01 21.7202C157.777 21.8452 157.593 22.0199 157.456 22.2443C157.32 22.4659 157.252 22.7187 157.252 23.0028V27H155.978Z" fill="#939395"/>
</svg>
